<?xml version="1.0" encoding="UTF-8"?>
<svg xmlns="http://www.w3.org/2000/svg" xmlns:xlink="http://www.w3.org/1999/xlink" width="337.5pt" height="303.749991pt" viewBox="0 0 337.5 303.749991" version="1.2">
<defs>
<clipPath id="clip1">
  <path d="M 56 4.917969 L 281.632812 4.917969 L 281.632812 298.8125 L 56 298.8125 Z M 56 4.917969 "/>
</clipPath>
</defs>
<g id="surface1">
<path style=" stroke:none;fill-rule:nonzero;fill:rgb(42.349243%,66.668701%,88.238525%);fill-opacity:1;" d="M 276.632812 29.410156 L 276.632812 274.320312 C 276.632812 285.152344 267.859375 293.914062 257.019531 293.914062 L 80.519531 293.914062 C 69.679688 293.914062 60.910156 285.152344 60.910156 274.320312 L 60.910156 68.59375 L 109.9375 68.59375 C 115.320312 68.59375 119.742188 64.175781 119.742188 58.800781 L 119.742188 9.816406 L 257.019531 9.816406 C 267.859375 9.816406 276.632812 18.578125 276.632812 29.410156 "/>
<path style=" stroke:none;fill-rule:nonzero;fill:rgb(34.118652%,59.609985%,84.709167%);fill-opacity:1;" d="M 109.9375 19.613281 L 109.9375 68.59375 C 109.9375 73.972656 105.511719 78.390625 100.132812 78.390625 L 60.910156 78.390625 L 60.910156 68.59375 L 109.9375 19.613281 "/>
<path style=" stroke:none;fill-rule:nonzero;fill:rgb(25.489807%,49.01886%,78.42865%);fill-opacity:1;" d="M 119.742188 9.816406 L 119.742188 58.800781 C 119.742188 64.175781 115.320312 68.59375 109.9375 68.59375 L 60.910156 68.59375 L 119.742188 9.816406 "/>
<path style=" stroke:none;fill-rule:nonzero;fill:rgb(34.118652%,59.609985%,84.709167%);fill-opacity:1;" d="M 203.089844 230.238281 L 203.089844 249.832031 L 114.839844 249.832031 L 114.839844 230.238281 L 203.089844 230.238281 "/>
<path style=" stroke:none;fill-rule:nonzero;fill:rgb(34.118652%,59.609985%,84.709167%);fill-opacity:1;" d="M 200.582031 169.066406 L 158.964844 210.644531 L 117.347656 169.066406 L 131.214844 155.253906 L 149.160156 173.125 L 149.160156 102.882812 L 168.769531 102.882812 L 168.769531 173.125 L 186.714844 155.253906 L 200.582031 169.066406 "/>
<path style=" stroke:none;fill-rule:nonzero;fill:rgb(25.489807%,49.01886%,78.42865%);fill-opacity:1;" d="M 212.894531 220.441406 L 212.894531 240.035156 L 124.644531 240.035156 L 124.644531 220.441406 L 212.894531 220.441406 "/>
<path style=" stroke:none;fill-rule:nonzero;fill:rgb(25.489807%,49.01886%,78.42865%);fill-opacity:1;" d="M 210.386719 159.269531 L 168.769531 200.847656 L 127.15625 159.269531 L 141.019531 145.457031 L 158.964844 163.328125 L 158.964844 93.085938 L 178.578125 93.085938 L 178.578125 163.328125 L 196.519531 145.457031 L 210.386719 159.269531 "/>
<g clip-path="url(#clip1)" clip-rule="nonzero">
<path style=" stroke:none;fill-rule:nonzero;fill:rgb(6.269836%,5.879211%,5.099487%);fill-opacity:1;" d="M 271.730469 274.320312 C 271.730469 282.394531 265.121094 289.015625 257.019531 289.015625 L 80.519531 289.015625 C 72.417969 289.015625 65.8125 282.394531 65.8125 274.320312 L 65.8125 73.492188 L 109.9375 73.492188 C 118.039062 73.492188 124.644531 66.894531 124.644531 58.800781 L 124.644531 14.714844 L 257.019531 14.714844 C 265.121094 14.714844 271.730469 21.316406 271.730469 29.410156 Z M 114.839844 21.621094 L 114.839844 58.800781 C 114.839844 61.496094 112.636719 63.699219 109.9375 63.699219 L 72.726562 63.699219 Z M 257.019531 4.917969 L 119.742188 4.917969 C 118.421875 4.917969 117.195312 5.453125 116.257812 6.335938 L 57.425781 65.113281 C 56.542969 66.050781 56.007812 67.273438 56.007812 68.59375 L 56.007812 274.320312 C 56.007812 287.847656 66.980469 298.8125 80.519531 298.8125 L 257.019531 298.8125 C 270.5625 298.8125 281.535156 287.847656 281.535156 274.320312 L 281.535156 29.410156 C 281.535156 15.882812 270.5625 4.917969 257.019531 4.917969 "/>
</g>
<path style=" stroke:none;fill-rule:nonzero;fill:rgb(6.269836%,5.879211%,5.099487%);fill-opacity:1;" d="M 141.039062 152.363281 L 155.5 166.808594 C 156.917969 168.207031 159.003906 168.625 160.84375 167.863281 C 162.679688 167.117188 163.867188 165.316406 163.867188 163.347656 L 163.867188 97.984375 L 173.671875 97.984375 L 173.671875 163.347656 C 173.671875 165.316406 174.859375 167.117188 176.699219 167.863281 C 178.539062 168.625 180.644531 168.207031 182.042969 166.808594 L 196.503906 152.363281 L 203.433594 159.289062 L 168.769531 193.921875 L 134.105469 159.289062 Z M 165.304688 204.3125 C 166.261719 205.269531 167.507812 205.746094 168.769531 205.746094 C 170.035156 205.746094 171.28125 205.269531 172.238281 204.3125 L 213.835938 162.753906 C 215.75 160.839844 215.75 157.738281 213.835938 155.828125 L 199.96875 141.972656 C 198.054688 140.058594 194.949219 140.058594 193.035156 141.972656 L 183.480469 151.519531 L 183.480469 93.085938 C 183.480469 90.390625 181.277344 88.1875 178.578125 88.1875 L 158.964844 88.1875 C 156.265625 88.1875 154.0625 90.390625 154.0625 93.085938 L 154.0625 151.519531 L 144.507812 141.972656 C 142.589844 140.058594 139.488281 140.058594 137.574219 141.972656 L 123.707031 155.828125 C 121.792969 157.738281 121.792969 160.839844 123.707031 162.753906 L 165.304688 204.3125 "/>
<path style=" stroke:none;fill-rule:nonzero;fill:rgb(6.269836%,5.879211%,5.099487%);fill-opacity:1;" d="M 207.992188 235.136719 L 129.546875 235.136719 L 129.546875 225.339844 L 207.992188 225.339844 Z M 212.894531 215.542969 L 124.644531 215.542969 C 121.945312 215.542969 119.742188 217.742188 119.742188 220.441406 L 119.742188 240.035156 C 119.742188 242.730469 121.945312 244.933594 124.644531 244.933594 L 212.894531 244.933594 C 215.597656 244.933594 217.796875 242.730469 217.796875 240.035156 L 217.796875 220.441406 C 217.796875 217.742188 215.597656 215.542969 212.894531 215.542969 "/>
</g>
</svg>
